<svg width="116" height="50" viewBox="0 0 116 50" fill="none" xmlns="http://www.w3.org/2000/svg">
<path d="M19.9538 20.6L17.3538 30.075L14.7788 20.6H10.2288L7.67881 30.025L5.07881 20.6H0.378809L5.27881 35.25H9.72881L12.3538 26.875L15.0038 35.25H19.4788L24.3788 20.6H19.9538ZM32.1267 35.6C34.0517 35.6 35.4517 34.925 36.3267 33.75V35.25H40.7767V20.6H36.3267V22.1C35.4517 20.925 34.0517 20.25 32.1267 20.25C27.9267 20.25 25.0017 23.475 25.0017 27.925C25.0017 32.375 27.9267 35.6 32.1267 35.6ZM32.8267 31.8C30.7017 31.8 29.3517 30.175 29.3517 27.925C29.3517 25.675 30.7017 24.05 32.8267 24.05C35.0017 24.05 36.4017 25.675 36.4017 27.925C36.4017 30.175 35.0017 31.8 32.8267 31.8ZM44.1354 35.25H48.5854V27.75C48.5854 25.525 50.0104 24.175 52.3854 24.175C53.2604 24.175 54.0354 24.35 54.6605 24.675L54.6104 20.5C54.0354 20.3 53.5105 20.25 52.6854 20.25C50.8104 20.25 49.4604 20.925 48.5854 22.1V20.6H44.1354V35.25ZM56.7819 35.25H61.2319V27.725C61.2319 25.45 62.2819 24.075 64.0319 24.075C65.7069 24.075 66.6069 25.3 66.6069 27.525V35.25H71.0569V26.775C71.0569 22.725 68.7319 20.25 65.3319 20.25C63.4569 20.25 62.1069 20.925 61.2319 22.1V20.6H56.7819V35.25Z" fill="#C9C9C9"/>
<path d="M76.3421 20.15C77.8671 20.15 78.9921 19.025 78.9921 17.5C78.9921 15.975 77.8671 14.875 76.3421 14.875C74.8171 14.875 73.6921 15.975 73.6921 17.5C73.6921 19.025 74.8171 20.15 76.3421 20.15ZM79.0421 35.6L77.8921 21.975H74.7921L73.6421 35.6H79.0421ZM81.9772 35.25H86.4272V27.725C86.4272 25.45 87.4772 24.075 89.2272 24.075C90.9022 24.075 91.8022 25.3 91.8022 27.525V35.25H96.2522V26.775C96.2522 22.725 93.9272 20.25 90.5272 20.25C88.6522 20.25 87.3022 20.925 86.4272 22.1V20.6H81.9772V35.25ZM106.737 41.7C111.112 41.7 114.287 38.95 114.287 34.975V20.6H109.837V22.1C108.962 20.925 107.562 20.25 105.637 20.25C101.437 20.25 98.5124 23.425 98.5124 27.8C98.5124 32.1 101.437 35.225 105.637 35.225C107.562 35.225 108.962 34.55 109.837 33.375V34.925C109.837 36.75 108.587 37.95 106.737 37.95C105.087 37.95 104.237 37.35 104.012 36.4H99.5124C99.9874 39.225 102.387 41.7 106.737 41.7ZM106.337 31.55C104.212 31.55 102.862 29.975 102.862 27.8C102.862 25.625 104.212 24.05 106.337 24.05C108.512 24.05 109.912 25.625 109.912 27.8C109.912 29.975 108.512 31.55 106.337 31.55Z" fill="#B4B4B4"/>
</svg>
